M48
; DRILL file {KiCad (5.1.10)-1} date 06/28/21 22:20:41
; FORMAT={-:-/ absolute / metric / decimal}
; #@! TF.CreationDate,2021-06-28T22:20:41+08:00
; #@! TF.GenerationSoftware,Kicad,Pcbnew,(5.1.10)-1
FMAT,2
METRIC
T1C0.400
T2C1.020
%
G90
G05
T1
X10.16Y23.368
X13.081Y20.828
T2
X1.27Y24.13
X1.27Y21.59
X1.27Y19.05
X1.27Y16.51
X1.27Y13.97
X1.27Y11.43
X1.27Y8.89
X1.27Y6.35
X1.27Y3.81
X1.27Y1.27
X24.13Y24.13
X24.13Y21.59
X24.13Y19.05
X24.13Y16.51
X24.13Y13.97
X24.13Y11.43
X24.13Y8.89
X24.13Y6.35
X24.13Y3.81
X24.13Y1.27
T0
M30
