%TF.GenerationSoftware,KiCad,Pcbnew,(5.1.10)-1*%
%TF.CreationDate,2021-06-28T22:20:39+08:00*%
%TF.ProjectId,TTGO-T7-V1.5_BNO085_expansion-board,5454474f-2d54-4372-9d56-312e355f424e,rev?*%
%TF.SameCoordinates,Original*%
%TF.FileFunction,Legend,Top*%
%TF.FilePolarity,Positive*%
%FSLAX46Y46*%
G04 Gerber Fmt 4.6, Leading zero omitted, Abs format (unit mm)*
G04 Created by KiCad (PCBNEW (5.1.10)-1) date 2021-06-28 22:20:39*
%MOMM*%
%LPD*%
G01*
G04 APERTURE LIST*
%ADD10C,0.120000*%
%ADD11C,0.150000*%
G04 APERTURE END LIST*
D10*
%TO.C,T1*%
X0Y25400000D02*
X0Y0D01*
X25400000Y25400000D02*
X0Y25400000D01*
X25400000Y0D02*
X25400000Y25400000D01*
X0Y0D02*
X25400000Y0D01*
%TO.C,G1*%
X5080000Y0D02*
X20320000Y0D01*
X20320000Y0D02*
X20320000Y25400000D01*
X20320000Y25400000D02*
X5080000Y25400000D01*
X5080000Y25400000D02*
X5080000Y0D01*
D11*
X8938095Y23360000D02*
X8842857Y23407619D01*
X8700000Y23407619D01*
X8557142Y23360000D01*
X8461904Y23264761D01*
X8414285Y23169523D01*
X8366666Y22979047D01*
X8366666Y22836190D01*
X8414285Y22645714D01*
X8461904Y22550476D01*
X8557142Y22455238D01*
X8700000Y22407619D01*
X8795238Y22407619D01*
X8938095Y22455238D01*
X8985714Y22502857D01*
X8985714Y22836190D01*
X8795238Y22836190D01*
X9604761Y22883809D02*
X9604761Y22407619D01*
X9271428Y23407619D02*
X9604761Y22883809D01*
X9938095Y23407619D01*
X10271428Y22788571D02*
X11033333Y22788571D01*
X11842857Y22931428D02*
X11985714Y22883809D01*
X12033333Y22836190D01*
X12080952Y22740952D01*
X12080952Y22598095D01*
X12033333Y22502857D01*
X11985714Y22455238D01*
X11890476Y22407619D01*
X11509523Y22407619D01*
X11509523Y23407619D01*
X11842857Y23407619D01*
X11938095Y23360000D01*
X11985714Y23312380D01*
X12033333Y23217142D01*
X12033333Y23121904D01*
X11985714Y23026666D01*
X11938095Y22979047D01*
X11842857Y22931428D01*
X11509523Y22931428D01*
X12509523Y22407619D02*
X12509523Y23407619D01*
X13080952Y22407619D01*
X13080952Y23407619D01*
X13747619Y23407619D02*
X13938095Y23407619D01*
X14033333Y23360000D01*
X14128571Y23264761D01*
X14176190Y23074285D01*
X14176190Y22740952D01*
X14128571Y22550476D01*
X14033333Y22455238D01*
X13938095Y22407619D01*
X13747619Y22407619D01*
X13652380Y22455238D01*
X13557142Y22550476D01*
X13509523Y22740952D01*
X13509523Y23074285D01*
X13557142Y23264761D01*
X13652380Y23360000D01*
X13747619Y23407619D01*
X14795238Y23407619D02*
X14890476Y23407619D01*
X14985714Y23360000D01*
X15033333Y23312380D01*
X15080952Y23217142D01*
X15128571Y23026666D01*
X15128571Y22788571D01*
X15080952Y22598095D01*
X15033333Y22502857D01*
X14985714Y22455238D01*
X14890476Y22407619D01*
X14795238Y22407619D01*
X14700000Y22455238D01*
X14652380Y22502857D01*
X14604761Y22598095D01*
X14557142Y22788571D01*
X14557142Y23026666D01*
X14604761Y23217142D01*
X14652380Y23312380D01*
X14700000Y23360000D01*
X14795238Y23407619D01*
X15700000Y22979047D02*
X15604761Y23026666D01*
X15557142Y23074285D01*
X15509523Y23169523D01*
X15509523Y23217142D01*
X15557142Y23312380D01*
X15604761Y23360000D01*
X15700000Y23407619D01*
X15890476Y23407619D01*
X15985714Y23360000D01*
X16033333Y23312380D01*
X16080952Y23217142D01*
X16080952Y23169523D01*
X16033333Y23074285D01*
X15985714Y23026666D01*
X15890476Y22979047D01*
X15700000Y22979047D01*
X15604761Y22931428D01*
X15557142Y22883809D01*
X15509523Y22788571D01*
X15509523Y22598095D01*
X15557142Y22502857D01*
X15604761Y22455238D01*
X15700000Y22407619D01*
X15890476Y22407619D01*
X15985714Y22455238D01*
X16033333Y22502857D01*
X16080952Y22598095D01*
X16080952Y22788571D01*
X16033333Y22883809D01*
X15985714Y22931428D01*
X15890476Y22979047D01*
X16414285Y23407619D02*
X17080952Y22407619D01*
X17080952Y23407619D02*
X16414285Y22407619D01*
%TD*%
M02*
