%TF.GenerationSoftware,KiCad,Pcbnew,(5.1.10)-1*%
%TF.CreationDate,2021-06-28T22:20:39+08:00*%
%TF.ProjectId,TTGO-T7-V1.5_BNO085_expansion-board,5454474f-2d54-4372-9d56-312e355f424e,rev?*%
%TF.SameCoordinates,Original*%
%TF.FileFunction,Soldermask,Top*%
%TF.FilePolarity,Negative*%
%FSLAX46Y46*%
G04 Gerber Fmt 4.6, Leading zero omitted, Abs format (unit mm)*
G04 Created by KiCad (PCBNEW (5.1.10)-1) date 2021-06-28 22:20:39*
%MOMM*%
%LPD*%
G01*
G04 APERTURE LIST*
%ADD10C,2.000000*%
G04 APERTURE END LIST*
D10*
%TO.C,T1*%
X24130000Y1270000D03*
X24130000Y3810000D03*
X24130000Y6350000D03*
X24130000Y8890000D03*
X24130000Y11430000D03*
X24130000Y13970000D03*
X24130000Y16510000D03*
X24130000Y19050000D03*
X24130000Y21590000D03*
X24130000Y24130000D03*
X1270000Y24130000D03*
X1270000Y21590000D03*
X1270000Y19050000D03*
X1270000Y16510000D03*
X1270000Y13970000D03*
X1270000Y11430000D03*
X1270000Y8890000D03*
X1270000Y6350000D03*
X1270000Y3810000D03*
X1270000Y1270000D03*
%TD*%
%TO.C,G1*%
G36*
G01*
X3175000Y889000D02*
X3175000Y1651000D01*
G75*
G02*
X3556000Y2032000I381000J0D01*
G01*
X6604000Y2032000D01*
G75*
G02*
X6985000Y1651000I0J-381000D01*
G01*
X6985000Y889000D01*
G75*
G02*
X6604000Y508000I-381000J0D01*
G01*
X3556000Y508000D01*
G75*
G02*
X3175000Y889000I0J381000D01*
G01*
G37*
G36*
G01*
X3175000Y3429000D02*
X3175000Y4191000D01*
G75*
G02*
X3556000Y4572000I381000J0D01*
G01*
X6604000Y4572000D01*
G75*
G02*
X6985000Y4191000I0J-381000D01*
G01*
X6985000Y3429000D01*
G75*
G02*
X6604000Y3048000I-381000J0D01*
G01*
X3556000Y3048000D01*
G75*
G02*
X3175000Y3429000I0J381000D01*
G01*
G37*
G36*
G01*
X3175000Y5969000D02*
X3175000Y6731000D01*
G75*
G02*
X3556000Y7112000I381000J0D01*
G01*
X6604000Y7112000D01*
G75*
G02*
X6985000Y6731000I0J-381000D01*
G01*
X6985000Y5969000D01*
G75*
G02*
X6604000Y5588000I-381000J0D01*
G01*
X3556000Y5588000D01*
G75*
G02*
X3175000Y5969000I0J381000D01*
G01*
G37*
G36*
G01*
X3175000Y8509000D02*
X3175000Y9271000D01*
G75*
G02*
X3556000Y9652000I381000J0D01*
G01*
X6604000Y9652000D01*
G75*
G02*
X6985000Y9271000I0J-381000D01*
G01*
X6985000Y8509000D01*
G75*
G02*
X6604000Y8128000I-381000J0D01*
G01*
X3556000Y8128000D01*
G75*
G02*
X3175000Y8509000I0J381000D01*
G01*
G37*
G36*
G01*
X3175000Y11049000D02*
X3175000Y11811000D01*
G75*
G02*
X3556000Y12192000I381000J0D01*
G01*
X6604000Y12192000D01*
G75*
G02*
X6985000Y11811000I0J-381000D01*
G01*
X6985000Y11049000D01*
G75*
G02*
X6604000Y10668000I-381000J0D01*
G01*
X3556000Y10668000D01*
G75*
G02*
X3175000Y11049000I0J381000D01*
G01*
G37*
G36*
G01*
X3175000Y13589000D02*
X3175000Y14351000D01*
G75*
G02*
X3556000Y14732000I381000J0D01*
G01*
X6604000Y14732000D01*
G75*
G02*
X6985000Y14351000I0J-381000D01*
G01*
X6985000Y13589000D01*
G75*
G02*
X6604000Y13208000I-381000J0D01*
G01*
X3556000Y13208000D01*
G75*
G02*
X3175000Y13589000I0J381000D01*
G01*
G37*
G36*
G01*
X3175000Y16129000D02*
X3175000Y16891000D01*
G75*
G02*
X3556000Y17272000I381000J0D01*
G01*
X6604000Y17272000D01*
G75*
G02*
X6985000Y16891000I0J-381000D01*
G01*
X6985000Y16129000D01*
G75*
G02*
X6604000Y15748000I-381000J0D01*
G01*
X3556000Y15748000D01*
G75*
G02*
X3175000Y16129000I0J381000D01*
G01*
G37*
G36*
G01*
X3175000Y18669000D02*
X3175000Y19431000D01*
G75*
G02*
X3556000Y19812000I381000J0D01*
G01*
X6604000Y19812000D01*
G75*
G02*
X6985000Y19431000I0J-381000D01*
G01*
X6985000Y18669000D01*
G75*
G02*
X6604000Y18288000I-381000J0D01*
G01*
X3556000Y18288000D01*
G75*
G02*
X3175000Y18669000I0J381000D01*
G01*
G37*
G36*
G01*
X3175000Y21209000D02*
X3175000Y21971000D01*
G75*
G02*
X3556000Y22352000I381000J0D01*
G01*
X6604000Y22352000D01*
G75*
G02*
X6985000Y21971000I0J-381000D01*
G01*
X6985000Y21209000D01*
G75*
G02*
X6604000Y20828000I-381000J0D01*
G01*
X3556000Y20828000D01*
G75*
G02*
X3175000Y21209000I0J381000D01*
G01*
G37*
G36*
G01*
X3175000Y23749000D02*
X3175000Y24511000D01*
G75*
G02*
X3556000Y24892000I381000J0D01*
G01*
X6604000Y24892000D01*
G75*
G02*
X6985000Y24511000I0J-381000D01*
G01*
X6985000Y23749000D01*
G75*
G02*
X6604000Y23368000I-381000J0D01*
G01*
X3556000Y23368000D01*
G75*
G02*
X3175000Y23749000I0J381000D01*
G01*
G37*
%TD*%
M02*
